<!-- Generator: Adobe Illustrator 19.2.1, SVG Export Plug-In  -->
<svg version="1.1" xmlns="http://www.w3.org/2000/svg" xmlns:xlink="http://www.w3.org/1999/xlink" xmlns:a="http://ns.adobe.com/AdobeSVGViewerExtensions/3.0/" x="0px" y="0px" width="167.278px" height="57.187px" viewBox="0 0 167.278 57.187" style="enable-background:new 0 0 167.278 57.187;" xml:space="preserve">
<style type="text/css">
	.st0{fill:#FFFFFF;}
</style>
<defs>
</defs>
<g>
	<g>
		<path class="st0" d="M1.512,50.158c0.188,0.079,0.435,0.128,0.731,0.128c0.771,0,1.217-0.356,1.217-1.661v-4.38h0.87v4.459    c0,1.77-0.87,2.314-2.018,2.314c-0.326,0-0.702-0.069-0.919-0.148L1.512,50.158z"/>
		<path class="st0" d="M10.292,44.245h1.038l2.274,6.665h-0.92l-0.712-2.096H9.609L8.927,50.91h-0.9L10.292,44.245z M11.794,48.141    l-0.652-1.918c-0.148-0.435-0.248-0.83-0.347-1.216h-0.029c-0.089,0.396-0.198,0.801-0.326,1.206l-0.653,1.928H11.794z"/>
		<path class="st0" d="M17.338,44.324c0.416-0.069,0.979-0.128,1.661-0.128c0.851,0,1.474,0.198,1.869,0.554    c0.355,0.316,0.583,0.801,0.583,1.404c0,0.613-0.178,1.087-0.514,1.434c-0.455,0.495-1.196,0.732-2.018,0.732    c-0.276,0-0.533-0.02-0.712-0.05v2.64h-0.87V44.324z M18.911,47.627c1.048,0,1.681-0.514,1.681-1.424    c0-0.89-0.622-1.325-1.571-1.325c-0.386,0-0.663,0.03-0.812,0.06v2.63C18.347,47.607,18.634,47.627,18.911,47.627z"/>
		<path class="st0" d="M26.305,44.245h1.038l2.274,6.665h-0.92l-0.712-2.096h-2.363l-0.682,2.096h-0.9L26.305,44.245z     M27.808,48.141l-0.652-1.918c-0.148-0.435-0.248-0.83-0.347-1.216H26.78c-0.089,0.396-0.198,0.801-0.326,1.206L25.8,48.141    H27.808z"/>
		<path class="st0" d="M33.352,44.245h0.949l2.136,3.372c0.484,0.781,0.87,1.483,1.197,2.175l0.02-0.02    c-0.079-0.89-0.1-1.701-0.1-2.729v-2.798h0.812v6.665h-0.87l-2.116-3.381c-0.465-0.742-0.92-1.503-1.246-2.225l-0.029,0.01    c0.05,0.84,0.069,1.641,0.069,2.749v2.848h-0.821V44.245z"/>
		<path class="st0" d="M42.625,44.245h0.87v6.665h-0.87V44.245z"/>
		<path class="st0" d="M47.647,49.861c0.386,0.248,0.949,0.436,1.542,0.436c0.881,0,1.395-0.465,1.395-1.137    c0-0.623-0.355-0.979-1.256-1.325c-1.088-0.375-1.77-0.949-1.77-1.888c0-1.028,0.87-1.8,2.165-1.8    c0.673,0,1.177,0.158,1.464,0.316l-0.228,0.702c-0.218-0.119-0.663-0.316-1.266-0.316c-0.91,0-1.256,0.544-1.256,0.999    c0,0.623,0.405,0.929,1.325,1.286c1.127,0.445,1.69,0.979,1.69,1.958c0,1.028-0.751,1.928-2.323,1.928    c-0.643,0-1.354-0.198-1.711-0.435L47.647,49.861z"/>
		<path class="st0" d="M58.492,44.147c0.83,0,1.364,0.168,1.582,0.287l-0.208,0.702c-0.326-0.158-0.791-0.277-1.345-0.277    c-1.563,0-2.601,0.999-2.601,2.749c0,1.631,0.939,2.679,2.561,2.679c0.524,0,1.059-0.109,1.404-0.277l0.178,0.692    c-0.316,0.148-0.949,0.316-1.77,0.316c-1.869,0-3.282-1.196-3.282-3.382C55.011,45.551,56.424,44.147,58.492,44.147z"/>
		<path class="st0" d="M63.898,44.245h0.87v2.798h3.224v-2.798h0.86v6.665h-0.86v-3.125h-3.224v3.125h-0.87V44.245z"/>
		<path class="st0" d="M73.111,44.245h3.609v0.712h-2.739v2.116h2.581v0.712h-2.581v2.413h2.888v0.712h-3.758V44.245z"/>
		<path class="st0" d="M86.129,44.335c0.445-0.089,1.068-0.139,1.661-0.139c0.91,0,1.514,0.168,1.929,0.544    c0.326,0.296,0.523,0.751,0.523,1.275c0,0.87-0.554,1.454-1.255,1.691v0.03c0.514,0.178,0.82,0.663,0.979,1.345    c0.218,0.939,0.376,1.572,0.514,1.829h-0.899c-0.099-0.188-0.257-0.761-0.435-1.592c-0.198-0.91-0.555-1.266-1.335-1.295H87v2.887    h-0.87V44.335z M87.88,47.37c0.919,0,1.492-0.504,1.492-1.266c0-0.86-0.623-1.236-1.522-1.246c-0.425,0-0.712,0.04-0.851,0.079    v2.433H87.88z"/>
		<path class="st0" d="M94.215,44.245h3.609v0.712h-2.739v2.116h2.581v0.712h-2.581v2.413h2.888v0.712h-3.758V44.245z"/>
		<path class="st0" d="M101.729,49.861c0.386,0.248,0.949,0.436,1.542,0.436c0.881,0,1.395-0.465,1.395-1.137    c0-0.623-0.355-0.979-1.256-1.325c-1.088-0.375-1.77-0.949-1.77-1.888c0-1.028,0.87-1.8,2.165-1.8    c0.673,0,1.177,0.158,1.464,0.316l-0.228,0.702c-0.218-0.119-0.663-0.316-1.266-0.316c-0.91,0-1.256,0.544-1.256,0.999    c0,0.623,0.405,0.929,1.325,1.286c1.127,0.445,1.69,0.979,1.69,1.958c0,1.028-0.751,1.928-2.323,1.928    c-0.643,0-1.354-0.198-1.711-0.435L101.729,49.861z"/>
		<path class="st0" d="M110.753,44.977h-2.026v-0.732h4.934v0.732h-2.036v5.933h-0.871V44.977z"/>
		<path class="st0" d="M118.188,44.245h1.038l2.274,6.665h-0.92l-0.712-2.096h-2.363l-0.682,2.096h-0.9L118.188,44.245z     M119.691,48.141l-0.652-1.918c-0.148-0.435-0.248-0.83-0.347-1.216h-0.029c-0.089,0.396-0.198,0.801-0.326,1.206l-0.653,1.928    H119.691z"/>
		<path class="st0" d="M124.959,44.245h0.87V48.2c0,1.483,0.653,2.116,1.553,2.116c0.979,0,1.622-0.652,1.622-2.116v-3.955h0.859    v3.896c0,2.047-1.067,2.877-2.511,2.877c-1.365,0-2.394-0.771-2.394-2.838V44.245z"/>
		<path class="st0" d="M134.123,44.335c0.445-0.089,1.068-0.139,1.661-0.139c0.91,0,1.513,0.168,1.929,0.544    c0.326,0.296,0.523,0.751,0.523,1.275c0,0.87-0.554,1.454-1.256,1.691v0.03c0.515,0.178,0.821,0.663,0.979,1.345    c0.218,0.939,0.376,1.572,0.514,1.829h-0.899c-0.099-0.188-0.257-0.761-0.436-1.592c-0.197-0.91-0.553-1.266-1.334-1.295h-0.812    v2.887h-0.87V44.335z M135.873,47.37c0.92,0,1.493-0.504,1.493-1.266c0-0.86-0.622-1.236-1.522-1.246    c-0.425,0-0.712,0.04-0.851,0.079v2.433H135.873z"/>
		<path class="st0" d="M144.018,44.245h1.038l2.274,6.665h-0.92l-0.712-2.096h-2.363l-0.682,2.096h-0.9L144.018,44.245z     M145.521,48.141l-0.652-1.918c-0.148-0.435-0.248-0.83-0.347-1.216h-0.029c-0.089,0.396-0.198,0.801-0.326,1.206l-0.653,1.928    H145.521z"/>
		<path class="st0" d="M151.066,44.245h0.949l2.136,3.372c0.485,0.781,0.87,1.483,1.196,2.175l0.021-0.02    c-0.079-0.89-0.099-1.701-0.099-2.729v-2.798h0.811v6.665h-0.87l-2.116-3.381c-0.465-0.742-0.92-1.503-1.246-2.225l-0.029,0.01    c0.049,0.84,0.069,1.641,0.069,2.749v2.848h-0.821V44.245z"/>
		<path class="st0" d="M161.615,44.977h-2.027v-0.732h4.934v0.732h-2.037v5.933h-0.869V44.977z"/>
	</g>
	<g>
		<path class="st0" d="M48.075,16.467c-4.044,2.344-8.587,2.58-13.337,0.382c-2.063,2.032-4.07,1.896-5.824-0.361    c-0.384-0.494-1.12-0.899-1.742-0.982c-1.162-0.155-2.359-0.057-3.542-0.04c-1.746,0.025-3.538,0.021-2.308,3.59    c-2.193-0.959-4.049-1.221-4.823-2.277c-0.653-0.891-0.394-2.831,0.074-4.077c0.718-1.911,1.912-3.654,2.995-5.412    c1.114-1.809,2.069-3.599,0.858-5.736c1.642-0.343,3.143-0.698,4.659-0.964c3.276-0.576,4.674,0.27,5.568,3.495    c0.963,3.475,1.813,6.982,2.657,10.257c3.373,0.586,6.388,2.329,9.937,0.683c-0.572-0.457-0.952-0.85-1.408-1.106    c-0.835-0.47-1.716-0.859-2.578-1.282c-3.635-1.786-4.719-3.343-4.122-5.92c0.961-4.149,3.774-6.66,7.452-6.651    c4.832,0.012,7.571,2.971,6.312,7.011c-0.277,0.889-1.322,1.538-2.013,2.298c-0.747-0.775-1.608-1.472-2.2-2.351    c-0.378-0.562-0.359-1.391-0.547-2.225c-1.454-0.147-3.165-0.366-3.503,1.325c-0.191,0.956,0.664,2.576,1.542,3.201    c2.132,1.517,4.553,2.628,6.875,3.912c1.261-2.156,2.818-4.477,4.002-6.975c0.655-1.383,0.686-3.061,1.051-4.864    c0.896-0.187,2.397-0.539,3.912-0.81c3.283-0.588,4.648,0.253,5.565,3.488c0.723,2.553,1.333,5.137,2.038,7.695    c0.293,1.066,0.785,2.081,1.03,3.155c0.201,0.881,0.17,1.814,0.242,2.724c-1.392-0.028-3.665,0.451-4.025-0.173    c-1.652-2.863-4.173-1.855-6.443-2.001c-1.819-0.118-3.1,0.408-2.315,3.478C51.813,18.007,50.119,17.309,48.075,16.467z     M26.09,6.344c-0.218-0.068-0.437-0.136-0.655-0.203c-0.92,1.568-1.84,3.136-3.025,5.156c2.109-0.113,3.52-0.188,5.22-0.279    C27.032,9.205,26.561,7.774,26.09,6.344z M59.011,6.272c-0.225-0.026-0.45-0.052-0.676-0.078c-0.898,1.552-1.796,3.105-2.939,5.08    c2.043-0.097,3.441-0.163,5.203-0.247C59.98,9.172,59.496,7.722,59.011,6.272z"/>
		<path class="st0" d="M109.649,18.732c-1.637-0.723-3.274-1.446-5.229-2.309c-5.289,3.238-13.424,2.425-13.911-1.983    c2.89,0.895,5.734,1.991,9.003,0.663c-0.488-0.454-0.778-0.842-1.164-1.06c-0.899-0.507-1.871-0.884-2.764-1.401    c-1.948-1.127-4.474-1.964-4.228-4.804c0.28-3.232,1.602-6.056,4.923-7.284c2.837-1.049,5.583-0.626,7.874,1.379    c1.628,1.425,1.801,4.525,0.609,6.397c-0.905,1.422-2.537,1.416-3.371-0.054c-0.285-0.502-0.421-1.099-0.568-1.668    c-0.128-0.497-0.177-1.014-0.275-1.611c-1.422-0.515-2.813-0.56-3.64,0.912c-0.846,1.505,0.205,2.581,1.344,3.319    c1.354,0.878,2.88,1.484,4.28,2.298c0.939,0.546,1.787,1.247,2.933,2.061c0.844-4.269,5.862-6.9,4.43-12.084    c1.412-0.295,2.913-0.646,4.429-0.916c3.271-0.583,4.636,0.253,5.563,3.494c0.648,2.267,1.142,4.577,1.769,6.85    c0.372,1.35,0.94,2.647,1.28,4.003c0.217,0.868,0.178,1.8,0.254,2.704c-1.389-0.024-3.656,0.461-4.017-0.161    c-1.657-2.856-4.171-1.881-6.45-1.999c-1.774-0.092-3.171,0.316-2.486,2.791C110.041,18.425,109.845,18.579,109.649,18.732z     M116.904,11.058c-0.643-1.885-1.139-3.335-1.634-4.785c-0.226-0.027-0.452-0.054-0.678-0.081    c-0.884,1.553-1.768,3.105-2.771,4.866C113.723,11.058,115.087,11.058,116.904,11.058z"/>
		<path class="st0" d="M148.908,18.191c-3.833,0.645-6.06-1.967-4.121-5.579c1.079-2.011,2.278-3.958,3.404-5.945    c0.89-1.571,1.776-3.156,0.282-5.085c2.015-0.392,3.764-0.853,5.542-1.049c2.801-0.31,3.957,0.451,4.771,3.136    c0.683,2.253,1.126,4.577,1.758,6.846c0.434,1.558,0.884,3.134,1.55,4.6c0.932,2.053,0.496,3.098-1.743,3.037    c-0.965-0.026-2.113-0.588-2.819-1.276c-1.175-1.146-6.66-2.149-7.878-1.023C149.171,16.299,149.178,17.274,148.908,18.191z     M150.839,10.937c1.875,0,3.318,0,5.046,0c-0.626-1.803-1.129-3.251-1.631-4.7c-0.225-0.008-0.449-0.016-0.674-0.024    C152.694,7.74,151.808,9.268,150.839,10.937z"/>
		<path class="st0" d="M141.696,0.134c1.995,1.761,1.961,3.02-0.143,4.493c-1.51,1.056-3.003,2.137-4.534,3.161    c-1.26,0.843-1.202,1.795-0.204,2.711c1.519,1.394,3.119,2.699,4.687,4.039c1.454,1.242,1.303,2.153-0.512,2.768    c-1.72,0.584-3.365,0.432-4.785-0.799c-1.946-1.687-3.864-3.406-5.693-5.021c0,1.768,0,4.009,0,6.319    c-3.949,1.424-6.188-0.205-5.804-4.425c0.167-1.835,0.442-3.677,0.402-5.509c-0.042-1.911-0.404-3.815-0.658-5.997    c0.627-0.282,1.708-0.84,2.84-1.261c2.45-0.911,4.133,0.471,3.794,3.061c-0.18,1.371-0.362,2.741-0.601,4.547    C134.468,5.349,138.079,2.744,141.696,0.134z"/>
		<path class="st0" d="M13.679,12.847c1.943,2.963,1.407,4.437-1.716,5.058c-1.368,0.272-2.779,0.439-4.172,0.453    c-5.248,0.055-8.246-3.233-7.735-8.476C0.177,8.644,0.463,7.4,0.841,6.213c1.876-5.883,7.78-7.891,12.973-4.452    c2.387,1.581,3.17,5.179,1.359,7.385c-0.621,0.757-2.045,1.36-2.958,1.202c-0.656-0.114-1.331-1.554-1.53-2.501    c-0.261-1.24,0.354-2.88-1.545-3.156C7.315,4.426,6.575,5.832,6.001,7.253C5.754,7.866,5.48,8.513,5.446,9.156    c-0.099,1.86-0.814,3.92,1.048,5.345c1.318,1.008,4.638,0.422,6.435-0.984C13.151,13.343,13.352,13.141,13.679,12.847z"/>
		<path class="st0" d="M72.831,11.172c0.025-5.784,3.603-10.109,8.371-10.119c5.205-0.011,8.987,3.534,8.953,8.394    c-0.037,5.368-3.782,8.986-9.2,8.888C75.498,18.235,72.811,15.866,72.831,11.172z M85.695,9.198    c-0.009-2.577-1.714-4.701-3.738-4.656c-2.371,0.052-4.529,3.134-4.515,6.451c0.01,2.466,1.574,4.019,3.995,3.969    C83.834,14.912,85.707,12.377,85.695,9.198z"/>
		<path class="st0" d="M33.66,26.733c-1.448-0.256-2.704-0.478-3.96-0.7c0.043-0.272,0.087-0.545,0.13-0.817    c1.274-0.066,2.548-0.131,3.951-0.204c0-0.909,0-1.692,0-2.659c0.95,0,1.85,0,2.875,0c0,0.703,0,1.38,0,2.221    c0.898-0.106,1.687-0.199,2.475-0.291c0.132,0.16,0.264,0.321,0.395,0.481c-0.559,0.362-1.076,0.902-1.687,1.048    c-1.104,0.265-2.1,0.424-1.495,1.971c2.117-0.113,4.227-0.374,6.322-0.29c1.745,0.07,3.901,0.258,4.098,2.533    c0.204,2.359-1.89,2.948-3.7,3.376c-1.385,0.327-2.986,1.194-4.217-0.718c1.147-0.234,2.215-0.28,3.122-0.686    c0.854-0.383,1.538-1.145,2.297-1.74c-0.897-0.486-1.772-1.323-2.696-1.382c-1.643-0.105-3.317,0.261-5.05,0.437    c0,0.752,0.036,1.181-0.007,1.602c-0.123,1.22,0.761,3.207-1.058,3.332c-1.844,0.127-3.77-0.758-5.618-1.333    c-0.114-0.035-0.088-1.421,0.268-1.855c0.533-0.651,1.385-1.073,2.156-1.492C33.905,28.674,33.92,28.701,33.66,26.733z"/>
		<path class="st0" d="M162.697,24.777c0.301,5.752-0.65,8.513-3.206,8.877c-1.384,0.197-3.232,1.362-4.364-0.679    c1.47-0.547,3.254-0.669,3.929-1.597c0.851-1.171,0.798-3,1.13-4.518c-3.709-1.033-4.723-0.493-6.651,2.047    c-1.257,1.656-2.957,3.075-4.708,4.218c-0.981,0.64-2.47,0.502-3.856,0.321c2.758-1.851,5.735-3.209,7.026-6.708    c-2.382-0.187-4.589-0.35-6.789-0.576c-0.07-0.007-0.074-0.658-0.127-1.184c2.441,0,4.784,0,7.26,0    c0.123-0.911,0.226-1.679,0.34-2.523c0.864,0,1.7,0,2.616,0c0,0.794,0,1.438,0,2.324    C157.702,24.777,160.136,24.777,162.697,24.777z"/>
		<path class="st0" d="M88.723,33.248c3.39-0.598,3.39-0.598,2.917-5.089c-3.441,1.166-6.033,5.127-10.764,3.482    c3.101-1.53,5.808-2.866,8.514-4.201c-0.079-0.223-0.158-0.446-0.237-0.67c-2.099,0-4.201,0.054-6.296-0.039    c-0.499-0.022-0.977-0.536-1.464-0.823c0.48-0.285,0.954-0.804,1.442-0.817c2.85-0.078,5.703-0.038,8.648-0.038    c0-1.087,0-2.011,0-3.104c0.902,0.065,1.685,0.122,2.509,0.181c0.067,1.005,0.124,1.867,0.196,2.942    c1.531,0,2.985-0.071,4.427,0.034c0.602,0.043,1.177,0.458,1.764,0.704c-0.621,0.301-1.222,0.794-1.867,0.861    c-1.308,0.136-2.64,0.041-4.156,0.041c0,1.919-0.116,3.735,0.036,5.527c0.127,1.498-0.689,2.13-1.858,2.225    C91.198,34.572,89.398,35.587,88.723,33.248z"/>
		<path class="st0" d="M127.81,34.255c3.084-2.106,6.071-3.454,6.123-7.289c-1.756,0-3.407,0-5.178,0    c-0.058,1.208-0.111,2.294-0.171,3.55c-0.795,0-1.553,0-2.513,0c0-1.119,0-2.255,0-3.658c-1.127,0-2.081,0.111-2.995-0.031    c-0.928-0.144-1.817-0.537-2.723-0.821c0.872-0.224,1.733-0.54,2.62-0.647c0.931-0.113,1.886-0.025,3.002-0.025    c0-1.092,0-2.001,0-3.024c0.941,0,1.708,0,2.617,0c0.046,0.969,0.088,1.831,0.137,2.867c1.743,0,3.462,0,5.219,0    c0-1.04,0-2.048,0-3.216c0.875,0.052,1.659,0.098,2.527,0.149c0,1.018,0,1.943,0,2.936c1.83,0.24,3.63,0.471,5.422,0.756    c0.036,0.006-0.029,0.648-0.052,1.081c-0.57,0-1.006,0.045-1.43-0.008c-2.318-0.288-3.891-0.151-4.796,2.81    c-0.588,1.924-3.064,3.338-4.857,4.779C130.319,34.819,129.242,34.385,127.81,34.255z"/>
		<path class="st0" d="M11.092,32.31c2.239,0.144,4.337-0.091,5.009-2.554c0.239-0.875-0.046-1.893-0.091-2.846    c-1.274,0.271-2.841,0.173-3.755,0.898c-1.406,1.115-2.355,2.804-3.517,4.234c-0.954,1.175-2.082,1.583-3.438,0.665    c1.511-1.656,3.05-3.342,4.831-5.295c-3.517-0.006-3.517-0.006-4.256-1.092c2.331-0.699,6.109,0.887,5.772-3.89    c0.913,0.056,1.613,0.099,2.48,0.152c-0.243,0.995-0.458,1.874-0.706,2.893c1.014,0,1.887-0.021,2.758,0.004    c2.486,0.072,3.14,0.931,2.597,3.379c-0.764,3.448-2.626,5.047-5.806,4.838c-0.656-0.043-1.285-0.504-1.926-0.773    C11.06,32.718,11.076,32.514,11.092,32.31z"/>
		<path class="st0" d="M59.014,28.239c2.556,2.096,4.767,3.908,7.032,5.764c-1.358,1.331-2.377,1.298-3.582-0.087    c-1.252-1.438-2.726-2.696-4.185-3.936c-1.372-1.165-1.542-2.176-0.097-3.432c1.774-1.541,3.446-3.2,5.301-4.938    c0.502,0.212,1.167,0.492,2.186,0.922C63.401,24.476,61.326,26.257,59.014,28.239z"/>
		<path class="st0" d="M111.212,25.753c1.477,0,2.955-0.036,4.43,0.027c0.335,0.014,0.655,0.373,0.982,0.574    c-0.338,0.273-0.671,0.776-1.014,0.783c-3.026,0.062-6.055,0.056-9.082,0.01c-0.329-0.005-0.651-0.385-0.977-0.591    c0.337-0.268,0.662-0.747,1.012-0.766C108.108,25.705,109.661,25.753,111.212,25.753z"/>
		<path class="st0" d="M26.536,27.641c-3.514,1.811-4.229-2.183-6.541-2.963C23.432,22.926,24.299,26.706,26.536,27.641z"/>
		<path class="st0" d="M47.865,25.254c-1.315,1.436-1.607,1.401-5.479-0.551C44.557,23.045,46.044,24.927,47.865,25.254z"/>
	</g>
</g>
</svg>